# xmcd CD database file
#
# Track frame offsets:
#	150
#	40292
#	62197
#	99325
#	141447
#
# Disc length: 2488 seconds
#
# Revision: 1
# Processed by: cddbd v1.5.1PL2 Copyright (c) Steve Scherf et al.
# Submitted via: CDex 1.60beta1
#
DISCID=4409b605
DTITLE=秋吉敏子＆ルー・タバキン・ビッグ・バンド - European Memoirs
DYEAR=1982
DGENRE=Jazz
TTITLE0=リメンバリング・バド
TTITLE1=ミラノの饗宴
TTITLE2=リラクシング・アット・ツェーラムズェー
TTITLE3=２つの顔　a.パート１
TTITLE4=２つの顔　b.パート２
EXTD=YEAR: 1982
EXTT0=
EXTT1=
EXTT2=
EXTT3=
EXTT4=
PLAYORDER=
